<?xml version="1.0" encoding="utf-8"?>
<!-- Generator: Adobe Illustrator 18.1.1, SVG Export Plug-In . SVG Version: 6.00 Build 0)  -->
<svg version="1.1" id="Layer_1" xmlns="http://www.w3.org/2000/svg" xmlns:xlink="http://www.w3.org/1999/xlink" x="0px" y="0px"
	 viewBox="0 0 56 21.4" enable-background="new 0 0 56 21.4" xml:space="preserve">
<path fill="#FF2A70" d="M3.6,7.7c0,0.4,0.3,0.7,0.8,0.7s0.8-0.3,0.8-0.8V3.4c0-0.1,0.1-0.2,0.2-0.2h0.9c0.1,0,0.2,0.1,0.2,0.2v4.3
	c0,1.1-0.8,2-2.1,2c-1.2,0-2.1-0.9-2.1-2V7.4c0-0.1,0.1-0.2,0.2-0.2h0.9c0.1,0,0.2,0.1,0.2,0.2V7.7z"/>
<path fill="#FF2A70" d="M12,5.1c0.1,0.8,0.1,1.8,0,2.6c-0.1,1.1-0.9,2-2.2,2s-2.1-0.9-2.2-2c-0.1-0.8-0.1-1.8,0-2.6
	c0.1-1.1,0.9-2,2.2-2C11.1,3.1,11.9,4,12,5.1 M8.9,5.1c-0.1,0.8-0.1,1.8,0,2.6c0,0.4,0.3,0.7,0.9,0.7s0.8-0.3,0.9-0.7
	c0.1-0.8,0.1-1.8,0-2.6c0-0.4-0.3-0.7-0.9-0.7S9,4.7,8.9,5.1"/>
<path fill="#FF2A70" d="M14.1,7.7c0,0.4,0.3,0.7,0.9,0.7c0.6,0,0.9-0.3,0.9-0.7V3.4c0-0.1,0.1-0.2,0.2-0.2H17c0.1,0,0.2,0.1,0.2,0.2
	v4.3c0,1.1-0.9,2-2.2,2c-1.2,0-2.2-0.9-2.2-2V3.4c0-0.1,0.1-0.2,0.2-0.2h0.9c0.1,0,0.2,0.1,0.2,0.2L14.1,7.7L14.1,7.7z"/>
<path fill="#FF2A70" d="M19.6,7.1C19.5,7.1,19.5,7.1,19.6,7.1l-0.1,2.4c0,0.1-0.1,0.2-0.2,0.2h-0.9c-0.1,0-0.2-0.1-0.2-0.2v-6
	c0-0.1,0.1-0.2,0.2-0.2h2c1.1,0,1.9,0.9,1.9,1.9c0,0.7-0.3,1.2-0.9,1.6c-0.1,0.1-0.1,0.2,0,0.3l1,2.3c0.1,0.1,0,0.3-0.2,0.3h-0.9
	c-0.2,0-0.2-0.1-0.3-0.2l-0.9-2.3c0,0-0.1-0.1-0.2-0.1L19.6,7.1L19.6,7.1z M19.6,4.5C19.5,4.5,19.5,4.6,19.6,4.5l-0.1,1.2
	c0,0,0,0.1,0.1,0.1h0.8c0.3,0,0.6-0.3,0.6-0.6s-0.3-0.6-0.6-0.6L19.6,4.5L19.6,4.5z"/>
<path fill="#FF2A70" d="M27.3,9.5c0,0.1-0.1,0.2-0.2,0.2h-1.1c-0.2,0-0.2-0.1-0.2-0.2l-1.2-3.2c0,0-0.1,0-0.1,0v3.2
	c0,0.1-0.1,0.2-0.2,0.2h-0.9c-0.1,0-0.2-0.1-0.2-0.2V3.4c0-0.1,0.1-0.2,0.2-0.2h1.1c0.1,0,0.2,0.1,0.2,0.2L26,6.9c0,0,0.1,0,0.1,0
	V3.4c0-0.1,0.1-0.2,0.2-0.2h0.9c0.1,0,0.2,0.1,0.2,0.2C27.3,3.4,27.3,9.5,27.3,9.5z"/>
<path fill="#FF2A70" d="M29.4,9.5c0,0.1-0.1,0.1-0.2,0.1h-1c-0.1,0-0.2-0.1-0.2-0.2l1.6-6.1c0-0.1,0.1-0.1,0.2-0.1h1.2
	c0.1,0,0.2,0,0.2,0.1l1.6,6.1c0,0.1,0,0.2-0.2,0.2h-0.9c-0.1,0-0.2,0-0.2-0.1l-0.3-0.9c0-0.1,0-0.1-0.1-0.1h-1.4
	c-0.1,0-0.1,0-0.1,0.1L29.4,9.5z M30,7C30,7.1,30.1,7.1,30,7l0.9,0.1c0,0,0.1,0,0.1-0.1l-0.4-2.2c0,0,0,0,0,0h0c0,0,0,0,0,0L30,7z"
	/>
<path fill="#FF2A70" d="M35.1,8.3C35.1,8.3,35.1,8.3,35.1,8.3l2.4,0.1c0.1,0,0.2,0.1,0.2,0.2v0.9c0,0.1-0.1,0.2-0.2,0.2H34
	c-0.1,0-0.2-0.1-0.2-0.2v-6c0-0.1,0.1-0.2,0.2-0.2h0.9c0.1,0,0.2,0.1,0.2,0.2L35.1,8.3L35.1,8.3z"/>
<path fill="#FF2A70" d="M39.8,4.6C39.8,4.5,39.7,4.5,39.8,4.6l-1-0.1c-0.1,0-0.2-0.1-0.2-0.2V3.4c0-0.1,0.1-0.2,0.2-0.2H42
	c0.1,0,0.2,0.1,0.2,0.2v0.9c0,0.1-0.1,0.2-0.2,0.2h-0.9c0,0-0.1,0-0.1,0.1v3.8c0,0,0,0.1,0.1,0.1h1c0.1,0,0.2,0.1,0.2,0.2v0.9
	c0,0.1-0.1,0.2-0.2,0.2h-3.5c-0.1,0-0.2-0.1-0.2-0.2V8.6c0-0.1,0.1-0.2,0.2-0.2h1c0,0,0.1,0,0.1-0.1V4.6z"/>
<path fill="#FF2A70" d="M45.2,7c-1.2-0.2-2.1-0.8-2.1-1.9c0-1.1,0.9-1.9,2.1-1.9c1.2,0,2.1,0.9,2.1,1.9v0.1c0,0.1-0.1,0.2-0.2,0.2
	h-0.9c-0.1,0-0.2-0.1-0.2-0.2V5.1c0-0.4-0.3-0.7-0.8-0.7S44.4,4.6,44.4,5c0,0.3,0.3,0.6,0.8,0.7c1.3,0.2,2.2,0.8,2.2,2.1
	c0,1.2-0.9,2-2.2,2c-1.3,0-2.2-0.9-2.2-2V7.4c0-0.1,0.1-0.2,0.2-0.2h0.9c0.1,0,0.2,0.1,0.2,0.2v0.3c0,0.4,0.3,0.7,0.9,0.7
	c0.5,0,0.9-0.3,0.9-0.7C46.1,7.3,45.9,7.2,45.2,7"/>
<path fill="#FF2A70" d="M50.4,5.2c0,0.1,0.1,0.1,0.2,0l0.5-1.8c0-0.1,0.1-0.2,0.2-0.2h1.3c0.1,0,0.2,0.1,0.2,0.2v6
	c0,0.1-0.1,0.2-0.2,0.2h-0.9c-0.1,0-0.2-0.1-0.2-0.2V5.8c0,0,0,0-0.1,0L51,7.2c0,0.1-0.1,0.2-0.2,0.2h-0.5c-0.1,0-0.2,0-0.2-0.2
	l-0.4-1.4c0,0-0.1,0-0.1,0v3.6c0,0.1-0.1,0.2-0.2,0.2h-0.9c-0.1,0-0.2-0.1-0.2-0.2v-6c0-0.1,0.1-0.2,0.2-0.2h1.3
	c0.1,0,0.2,0,0.2,0.2L50.4,5.2z"/>
<path fill="#FF2A70" d="M23.4,18.2c-0.1,0-0.2-0.1-0.2-0.2V12c0-0.1,0.1-0.2,0.2-0.2h1.9c1.1,0,1.9,0.9,2.1,2c0.1,0.8,0.1,1.6,0,2.4
	c-0.1,1.1-0.9,2-2.1,2H23.4z M25.3,16.9c0.4,0,0.7-0.3,0.7-0.7c0.1-0.8,0.1-1.6,0-2.4c0-0.4-0.3-0.7-0.7-0.7h-0.7c0,0-0.1,0-0.1,0.1
	v3.7c0,0,0,0.1,0.1,0.1H25.3z"/>
<path fill="#FF2A70" d="M29.8,14.3C29.8,14.3,29.9,14.3,29.8,14.3l2.1,0.1c0.1,0,0.2,0.1,0.2,0.2v0.9c0,0.1-0.1,0.2-0.2,0.2h-2.1
	c0,0-0.1,0-0.1,0.1v1.1c0,0,0,0.1,0.1,0.1h2.2c0.1,0,0.2,0.1,0.2,0.2V18c0,0.1-0.1,0.2-0.2,0.2h-3.4c-0.1,0-0.2-0.1-0.2-0.2V12
	c0-0.1,0.1-0.2,0.2-0.2h3.4c0.1,0,0.2,0.1,0.2,0.2v0.9c0,0.1-0.1,0.2-0.2,0.2h-2.2c0,0-0.1,0-0.1,0.1V14.3z"/>
<path fill="#FF2A70" d="M35.6,15.6c-1.2-0.2-2.1-0.8-2.1-1.9c0-1.1,0.9-1.9,2.1-1.9s2.1,0.9,2.1,1.9v0.1c0,0.1-0.1,0.2-0.2,0.2h-0.9
	c-0.1,0-0.2-0.1-0.2-0.2v-0.1c0-0.4-0.3-0.7-0.8-0.7c-0.5,0-0.8,0.3-0.8,0.6c0,0.3,0.3,0.6,0.8,0.7c1.3,0.2,2.2,0.8,2.2,2.1
	c0,1.2-0.9,2-2.2,2c-1.3,0-2.2-0.9-2.2-2V16c0-0.1,0.1-0.2,0.2-0.2h0.9c0.1,0,0.2,0.1,0.2,0.2v0.3c0,0.4,0.3,0.7,0.9,0.7
	c0.5,0,0.9-0.3,0.9-0.7C36.5,15.9,36.2,15.7,35.6,15.6"/>
<path fill="#FF2A70" d="M39.8,13.1C39.8,13.1,39.7,13,39.8,13.1l-1-0.1c-0.1,0-0.2-0.1-0.2-0.2V12c0-0.1,0.1-0.2,0.2-0.2H42
	c0.1,0,0.2,0.1,0.2,0.2v0.9c0,0.1-0.1,0.2-0.2,0.2h-0.9c0,0-0.1,0-0.1,0.1v3.8c0,0,0,0.1,0.1,0.1h1c0.1,0,0.2,0.1,0.2,0.2V18
	c0,0.1-0.1,0.2-0.2,0.2h-3.5c-0.1,0-0.2-0.1-0.2-0.2v-0.9c0-0.1,0.1-0.2,0.2-0.2h1c0,0,0.1,0,0.1-0.1V13.1z"/>
<path fill="#FF2A70" d="M45.3,13c-0.6,0-0.8,0.3-0.9,0.7c-0.1,0.8-0.1,1.8,0,2.6c0,0.4,0.3,0.7,0.9,0.7s0.9-0.3,0.9-0.7v-0.4
	c0,0,0-0.1-0.1-0.1h-0.6c-0.1,0-0.2-0.1-0.2-0.2v-0.9c0-0.1,0.1-0.2,0.2-0.2h1.8c0.1,0,0.2,0.1,0.2,0.2v1.5c0,1.1-0.9,2-2.2,2
	c-1.3,0-2.1-0.9-2.2-2c-0.1-0.8-0.1-1.8,0-2.6c0.1-1.1,0.9-2,2.2-2s2.2,0.9,2.2,2.1c0,0.1-0.1,0.2-0.2,0.2h-0.9
	c-0.1,0-0.2-0.1-0.2-0.2C46.1,13.3,45.8,13,45.3,13"/>
<path fill="#FF2A70" d="M52.8,18c0,0.1-0.1,0.2-0.2,0.2h-1.1c-0.2,0-0.2-0.1-0.2-0.2L50,14.8c0,0-0.1,0-0.1,0V18
	c0,0.1-0.1,0.2-0.2,0.2h-0.9c-0.1,0-0.2-0.1-0.2-0.2v-6c0-0.1,0.1-0.2,0.2-0.2h1.1c0.1,0,0.2,0.1,0.2,0.2l1.3,3.5c0,0,0.1,0,0.1,0
	V12c0-0.1,0.1-0.2,0.2-0.2h0.9c0.1,0,0.2,0.1,0.2,0.2V18z"/>
<path fill="#FF2A70" d="M15.4,14.4H13V12c0-0.1-0.1-0.2-0.2-0.2h-0.8c-0.1,0-0.2,0.1-0.2,0.2v2.4H9.3c-0.1,0-0.2,0.1-0.2,0.2v0.8
	c0,0.1,0.1,0.2,0.2,0.2h2.4V18c0,0.1,0.1,0.2,0.2,0.2h0.8c0.1,0,0.2-0.1,0.2-0.2v-2.4h2.4c0.1,0,0.2-0.1,0.2-0.2v-0.8
	C15.6,14.5,15.5,14.4,15.4,14.4z"/>
<path fill="#FF2A70" d="M49.7,21.4h6.1c0.1,0,0.2-0.1,0.2-0.2v-6.1c0-0.1-0.1-0.2-0.2-0.2H55c-0.1,0-0.2,0.1-0.2,0.2v5.1h-5.1
	c-0.1,0-0.2,0.1-0.2,0.2v0.8C49.5,21.3,49.6,21.4,49.7,21.4z"/>
<path fill="#FF2A70" d="M6.3,0H0.2C0.1,0,0,0.1,0,0.2v6.1c0,0.1,0.1,0.2,0.2,0.2H1c0.1,0,0.2-0.1,0.2-0.2V1.2h5.1
	c0.1,0,0.2-0.1,0.2-0.2V0.2C6.5,0.1,6.4,0,6.3,0z"/>
</svg>
